<svg width="1136" height="142" viewBox="0 0 1136 142" fill="none" xmlns="http://www.w3.org/2000/svg">
<path d="M0 133.693C0 138.111 3.58172 141.693 8 141.693C12.4183 141.693 16 138.111 16 133.693C16 129.274 12.4183 125.693 8 125.693C3.58172 125.693 0 129.274 0 133.693ZM515.005 133.693L514.892 132.197L515.005 133.693ZM954.104 106.067L953.724 107.518L954.104 106.067ZM1120 116.113C1120 120.531 1123.58 124.113 1128 124.113C1132.42 124.113 1136 120.531 1136 116.113C1136 111.695 1132.42 108.113 1128 108.113C1123.58 108.113 1120 111.695 1120 116.113ZM15.8562 135.883C16.6818 135.952 17.407 135.339 17.476 134.514C17.5451 133.688 16.9318 132.963 16.1063 132.894L15.8562 135.883ZM32.262 134.135C31.4356 134.077 30.7186 134.7 30.6605 135.526C30.6024 136.353 31.2252 137.07 32.0516 137.128L32.262 134.135ZM48.1591 138.161C48.9862 138.209 49.6956 137.578 49.7437 136.751C49.7917 135.924 49.1603 135.214 48.3332 135.166L48.1591 138.161ZM64.4534 136.009C63.6258 135.97 62.9238 136.61 62.8854 137.438C62.8469 138.265 63.4866 138.967 64.3141 139.006L64.4534 136.009ZM80.4918 139.664C81.3197 139.693 82.0143 139.045 82.0432 138.217C82.0722 137.389 81.4244 136.695 80.5965 136.666L80.4918 139.664ZM96.749 137.136C95.9208 137.117 95.2338 137.773 95.2145 138.601C95.1952 139.429 95.851 140.116 96.6792 140.135L96.749 137.136ZM112.869 140.416C113.698 140.426 114.377 139.762 114.386 138.933C114.396 138.105 113.732 137.426 112.903 137.416L112.869 140.416ZM129.055 137.499C128.227 137.5 127.556 138.172 127.557 139.001C127.558 139.829 128.23 140.5 129.059 140.499L129.055 137.499ZM145.241 140.374C146.069 140.362 146.731 139.681 146.719 138.852C146.707 138.024 146.026 137.362 145.198 137.374L145.241 140.374ZM161.338 137.028C160.51 137.051 159.858 137.742 159.881 138.57C159.905 139.398 160.596 140.05 161.424 140.026L161.338 137.028ZM177.605 139.438C178.432 139.401 179.074 138.701 179.037 137.873C179 137.046 178.3 136.404 177.472 136.441L177.605 139.438ZM193.595 135.591C192.768 135.642 192.139 136.354 192.19 137.18C192.241 138.007 192.952 138.636 193.779 138.586L193.595 135.591ZM209.939 137.439C210.765 137.372 211.38 136.649 211.313 135.823C211.247 134.997 210.523 134.382 209.697 134.449L209.939 137.439ZM225.768 132.977C224.944 133.062 224.344 133.799 224.429 134.623C224.514 135.447 225.251 136.046 226.075 135.961L225.768 132.977ZM242.17 134.104C242.992 133.999 243.572 133.247 243.466 132.425C243.361 131.604 242.609 131.023 241.787 131.129L242.17 134.104ZM257.728 128.844C256.909 128.974 256.352 129.743 256.482 130.561C256.612 131.379 257.381 131.936 258.199 131.806L257.728 128.844ZM274.162 128.979C274.975 128.819 275.504 128.03 275.344 127.217C275.185 126.405 274.396 125.875 273.583 126.035L274.162 128.979ZM289.346 122.578C288.542 122.775 288.049 123.587 288.245 124.391C288.442 125.196 289.253 125.689 290.058 125.493L289.346 122.578ZM305.721 121.201C306.513 120.958 306.958 120.119 306.715 119.327C306.471 118.535 305.632 118.09 304.84 118.333L305.721 121.201ZM319.983 113.051C319.213 113.356 318.836 114.228 319.142 114.998C319.447 115.768 320.319 116.145 321.089 115.839L319.983 113.051ZM335.915 109.015C336.645 108.623 336.919 107.714 336.528 106.984C336.136 106.254 335.227 105.98 334.497 106.372L335.915 109.015ZM347.844 97.7304C347.195 98.2453 347.087 99.1888 347.602 99.8378C348.116 100.487 349.06 100.595 349.709 100.081L347.844 97.7304ZM361.18 88.1934C361.657 87.516 361.494 86.5803 360.817 86.1034C360.139 85.6265 359.204 85.7891 358.727 86.4665L361.18 88.1934ZM364.973 72.3627C364.802 73.1734 365.322 73.9687 366.132 74.139C366.943 74.3093 367.738 73.7901 367.909 72.9794L364.973 72.3627ZM368.443 56.9569C368.373 56.1314 367.646 55.5195 366.821 55.5901C365.995 55.6607 365.384 56.387 365.454 57.2125L368.443 56.9569ZM362.747 42.8047C362.988 43.5971 363.827 44.0436 364.619 43.802C365.411 43.5603 365.858 42.7221 365.616 41.9297L362.747 42.8047ZM359.307 27.9662C358.867 27.2644 357.941 27.0523 357.24 27.4925C356.538 27.9326 356.326 28.8584 356.766 29.5602L359.307 27.9662ZM347.381 18.5199C348.003 19.0673 348.951 19.0071 349.498 18.3853C350.046 17.7635 349.986 16.8157 349.364 16.2683L347.381 18.5199ZM336.571 7.79312C335.827 7.42917 334.929 7.73743 334.565 8.48163C334.201 9.22583 334.509 10.1242 335.253 10.4881L336.571 7.79312ZM321.463 5.61423C322.269 5.80488 323.077 5.3059 323.268 4.49971C323.458 3.69352 322.959 2.88542 322.153 2.69476L321.463 5.61423ZM307.045 0.603835C306.218 0.564187 305.515 1.20285 305.475 2.03033C305.435 2.8578 306.074 3.56075 306.902 3.6004L307.045 0.603835ZM292.17 4.10563C292.993 4.01132 293.584 3.26767 293.489 2.44462C293.395 1.62158 292.651 1.03082 291.828 1.12513L292.17 4.10563ZM276.896 4.0298C276.097 4.25139 275.63 5.07812 275.852 5.87637C276.073 6.67461 276.9 7.14208 277.698 6.92049L276.896 4.0298ZM263.882 12.0304C264.631 11.6758 264.95 10.7814 264.596 10.0327C264.241 9.284 263.347 8.96447 262.598 9.31903L263.882 12.0304ZM249.515 17.2492C248.86 17.756 248.74 18.6981 249.247 19.3534C249.753 20.0087 250.695 20.1292 251.351 19.6224L249.515 17.2492ZM241.303 30.027C241.772 29.3439 241.598 28.4102 240.915 27.9415C240.231 27.4729 239.298 27.6467 238.829 28.3299L241.303 30.027ZM232.983 42.7122C232.858 43.5312 233.421 44.2962 234.24 44.4209C235.059 44.5456 235.824 43.9827 235.949 43.1638L232.983 42.7122ZM237.233 57.2556C236.976 56.4678 236.13 56.037 235.342 56.2933C234.554 56.5497 234.123 57.3961 234.38 58.1838L237.233 57.2556ZM241.794 72.5722C242.25 73.2633 243.181 73.4534 243.872 72.9966C244.563 72.5399 244.753 71.6093 244.297 70.9182L241.794 72.5722ZM254.444 83.6726C253.875 83.0709 252.925 83.0446 252.324 83.614C251.722 84.1834 251.696 85.1328 252.265 85.7345L254.444 83.6726ZM264.742 96.9881C265.397 97.4951 266.339 97.375 266.846 96.7199C267.353 96.0648 267.233 95.1226 266.578 94.6156L264.742 96.9881ZM280.16 103.745C279.445 103.327 278.526 103.567 278.108 104.282C277.69 104.998 277.931 105.916 278.646 106.335L280.16 103.745ZM293.531 113.978C294.286 114.318 295.174 113.981 295.514 113.226C295.855 112.471 295.518 111.583 294.763 111.242L293.531 113.978ZM310.047 117.324C309.265 117.05 308.409 117.462 308.135 118.243C307.861 119.025 308.273 119.881 309.055 120.155L310.047 117.324ZM324.989 125.1C325.788 125.318 326.613 124.848 326.832 124.049C327.05 123.249 326.579 122.425 325.78 122.206L324.989 125.1ZM341.814 126.079C341.004 125.907 340.207 126.425 340.036 127.235C339.864 128.046 340.382 128.842 341.192 129.014L341.814 126.079ZM357.579 132.062C358.397 132.195 359.167 131.639 359.3 130.821C359.432 130.003 358.876 129.233 358.059 129.101L357.579 132.062ZM374.42 131.395C373.598 131.296 372.851 131.883 372.752 132.705C372.654 133.528 373.24 134.275 374.063 134.373L374.42 131.395ZM390.6 136.054C391.425 136.124 392.151 135.511 392.221 134.686C392.29 133.86 391.678 133.134 390.852 133.065L390.6 136.054ZM407.382 134.2C406.554 134.155 405.848 134.79 405.803 135.617C405.759 136.444 406.394 137.151 407.221 137.195L407.382 134.2ZM423.801 137.86C424.629 137.882 425.319 137.229 425.341 136.401C425.363 135.573 424.71 134.883 423.882 134.861L423.801 137.86ZM440.452 135.11C439.624 135.107 438.95 135.776 438.947 136.604C438.944 137.433 439.613 138.107 440.442 138.11L440.452 135.11ZM457.037 137.991C457.865 137.976 458.525 137.293 458.51 136.465C458.496 135.636 457.813 134.977 456.985 134.991L457.037 137.991ZM473.537 134.544C472.709 134.574 472.063 135.27 472.093 136.098C472.123 136.925 472.818 137.572 473.646 137.542L473.537 134.544ZM490.256 136.798C491.083 136.754 491.718 136.047 491.674 135.22C491.63 134.393 490.924 133.758 490.097 133.802L490.256 136.798ZM506.608 132.795C505.781 132.852 505.157 133.567 505.214 134.394C505.271 135.22 505.987 135.845 506.813 135.788L506.608 132.795ZM522.94 134.569C523.765 134.501 524.379 133.777 524.311 132.951C524.243 132.126 523.519 131.511 522.693 131.579L522.94 134.569ZM538.4 130.194C537.576 130.272 536.97 131.003 537.047 131.828C537.124 132.652 537.855 133.258 538.68 133.181L538.4 130.194ZM554.405 131.638C555.229 131.553 555.829 130.817 555.744 129.993C555.66 129.169 554.923 128.569 554.099 128.653L554.405 131.638ZM569.782 126.99C568.958 127.08 568.363 127.821 568.454 128.644C568.544 129.468 569.284 130.062 570.108 129.972L569.782 126.99ZM585.778 128.214C586.601 128.12 587.191 127.376 587.097 126.553C587.002 125.73 586.259 125.139 585.436 125.234L585.778 128.214ZM601.088 123.404C600.266 123.501 599.678 124.247 599.776 125.07C599.874 125.893 600.62 126.48 601.443 126.383L601.088 123.404ZM617.102 124.497C617.925 124.397 618.51 123.65 618.41 122.827C618.31 122.005 617.562 121.419 616.74 121.519L617.102 124.497ZM632.39 119.599C631.568 119.701 630.984 120.449 631.085 121.272C631.187 122.094 631.936 122.678 632.758 122.576L632.39 119.599ZM648.411 120.635C649.233 120.533 649.816 119.783 649.714 118.961C649.612 118.139 648.863 117.556 648.041 117.658L648.411 120.635ZM663.692 115.711C662.87 115.813 662.286 116.562 662.388 117.384C662.491 118.206 663.24 118.79 664.062 118.688L663.692 115.711ZM679.713 116.749C680.536 116.648 681.12 115.899 681.019 115.077C680.917 114.255 680.169 113.671 679.346 113.772L679.713 116.749ZM695.005 111.855C694.182 111.955 693.597 112.703 693.696 113.525C693.796 114.348 694.544 114.933 695.366 114.834L695.005 111.855ZM711.022 112.954C711.845 112.856 712.433 112.11 712.335 111.288C712.238 110.465 711.492 109.877 710.669 109.975L711.022 112.954ZM726.341 108.145C725.518 108.239 724.928 108.983 725.022 109.806C725.117 110.629 725.86 111.22 726.683 111.125L726.341 108.145ZM742.351 109.362C743.174 109.272 743.768 108.531 743.678 107.707C743.587 106.884 742.846 106.29 742.023 106.38L742.351 109.362ZM757.715 104.698C756.891 104.784 756.292 105.521 756.378 106.345C756.464 107.169 757.202 107.768 758.026 107.682L757.715 104.698ZM773.709 106.101C774.534 106.021 775.137 105.288 775.057 104.463C774.977 103.639 774.244 103.035 773.419 103.115L773.709 106.101ZM789.137 101.653C788.312 101.726 787.702 102.455 787.775 103.28C787.849 104.105 788.577 104.715 789.402 104.642L789.137 101.653ZM805.104 103.325C805.93 103.261 806.547 102.538 806.482 101.712C806.417 100.887 805.695 100.27 804.869 100.335L805.104 103.325ZM820.613 99.1872C819.787 99.2424 819.162 99.9572 819.217 100.784C819.272 101.61 819.987 102.236 820.813 102.181L820.613 99.1872ZM836.526 101.239C837.353 101.196 837.989 100.49 837.945 99.6624C837.901 98.8351 837.195 98.1998 836.368 98.2433L836.526 101.239ZM852.127 97.543C851.299 97.5726 850.652 98.2677 850.681 99.0956C850.711 99.9235 851.406 100.571 852.234 100.541L852.127 97.543ZM867.99 100.134C868.818 100.122 869.48 99.44 869.467 98.6117C869.455 97.7833 868.773 97.1221 867.944 97.1347L867.99 100.134ZM883.776 97.0855C882.948 97.0773 882.27 97.7422 882.261 98.5706C882.253 99.399 882.918 100.077 883.746 100.085L883.776 97.0855ZM899.458 100.478C900.285 100.512 900.984 99.8689 901.018 99.0412C901.052 98.2135 900.409 97.5148 899.581 97.4806L899.458 100.478ZM915.352 98.4354C914.526 98.3681 913.802 98.9828 913.735 99.8085C913.667 100.634 914.282 101.358 915.108 101.426L915.352 98.4354ZM930.753 103.102C931.573 103.213 932.329 102.638 932.44 101.817C932.552 100.996 931.977 100.24 931.156 100.129L930.753 103.102ZM946.774 102.8C945.963 102.629 945.168 103.147 944.996 103.957C944.825 104.768 945.344 105.564 946.154 105.735L946.774 102.8ZM962.259 109.621C963.066 109.807 963.871 109.304 964.058 108.497C964.245 107.69 963.742 106.884 962.934 106.698L962.259 109.621ZM979.997 110.159C979.181 110.016 978.403 110.561 978.259 111.377C978.116 112.192 978.661 112.97 979.476 113.114L979.997 110.159ZM996.836 115.744C997.657 115.849 998.409 115.269 998.514 114.447C998.619 113.625 998.039 112.874 997.217 112.768L996.836 115.744ZM1014.55 114.618C1013.72 114.547 1013 115.158 1012.92 115.984C1012.85 116.809 1013.47 117.536 1014.29 117.607L1014.55 114.618ZM1031.8 118.788C1032.62 118.829 1033.33 118.191 1033.37 117.364C1033.41 116.536 1032.77 115.832 1031.95 115.791L1031.8 118.788ZM1049.37 116.366C1048.54 116.352 1047.86 117.012 1047.84 117.84C1047.83 118.668 1048.49 119.351 1049.32 119.366L1049.37 116.366ZM1066.84 119.419C1067.67 119.411 1068.34 118.732 1068.33 117.904C1068.32 117.076 1067.64 116.411 1066.81 116.419L1066.84 119.419ZM1084.28 116.036C1083.45 116.063 1082.8 116.756 1082.83 117.584C1082.85 118.412 1083.55 119.061 1084.37 119.034L1084.28 116.036ZM1101.87 118.333C1102.7 118.295 1103.34 117.594 1103.3 116.766C1103.26 115.939 1102.56 115.298 1101.73 115.336L1101.87 118.333ZM1119.25 114.606C1118.43 114.629 1117.77 115.319 1117.8 116.147C1117.82 116.975 1118.51 117.628 1119.34 117.605L1119.25 114.606ZM7.86425 135.186C10.4729 135.423 13.1381 135.656 15.8562 135.883L16.1063 132.894C13.3952 132.667 10.7371 132.435 8.13575 132.199L7.86425 135.186ZM32.0516 137.128C37.2797 137.495 42.656 137.841 48.1591 138.161L48.3332 135.166C42.8422 134.847 37.4779 134.502 32.262 134.135L32.0516 137.128ZM64.3141 139.006C69.6211 139.252 75.0193 139.473 80.4918 139.664L80.5965 136.666C75.1357 136.475 69.749 136.255 64.4534 136.009L64.3141 139.006ZM96.6792 140.135C102.028 140.26 107.43 140.355 112.869 140.416L112.903 137.416C107.476 137.355 102.087 137.26 96.749 137.136L96.6792 140.135ZM129.059 140.499C134.435 140.493 139.834 140.452 145.241 140.374L145.198 137.374C139.805 137.452 134.419 137.493 129.055 137.499L129.059 140.499ZM161.424 140.026C166.828 139.871 172.226 139.676 177.605 139.438L177.472 136.441C172.11 136.678 166.727 136.873 161.338 137.028L161.424 140.026ZM193.779 138.586C199.205 138.252 204.597 137.871 209.939 137.439L209.697 134.449C204.375 134.879 199.003 135.259 193.595 135.591L193.779 138.586ZM226.075 135.961C231.515 135.402 236.885 134.784 242.17 134.104L241.787 131.129C236.529 131.805 231.184 132.42 225.768 132.977L226.075 135.961ZM258.199 131.806C263.644 130.94 268.972 129.999 274.162 128.979L273.583 126.035C268.432 127.047 263.14 127.982 257.728 128.844L258.199 131.806ZM290.058 125.493C295.484 124.168 300.715 122.739 305.721 121.201L304.84 118.333C299.895 119.853 294.722 121.266 289.346 122.578L290.058 125.493ZM321.089 115.839C326.398 113.733 331.356 111.462 335.915 109.015L334.497 106.372C330.053 108.757 325.201 110.98 319.983 113.051L321.089 115.839ZM349.709 100.081C354.292 96.4442 358.155 92.4905 361.18 88.1934L358.727 86.4665C355.895 90.4895 352.244 94.2401 347.844 97.7304L349.709 100.081ZM367.909 72.9794C368.474 70.2895 368.763 67.5065 368.763 64.6294H365.763C365.763 67.3042 365.494 69.8803 364.973 72.3627L367.909 72.9794ZM368.763 64.6294C368.763 61.9821 368.654 59.4251 368.443 56.9569L365.454 57.2125C365.658 59.5923 365.763 62.0639 365.763 64.6294H368.763ZM365.616 41.9297C364.038 36.7536 361.905 32.1075 359.307 27.9662L356.766 29.5602C359.218 33.4698 361.243 37.8732 362.747 42.8047L365.616 41.9297ZM349.364 16.2683C345.489 12.8565 341.179 10.0465 336.571 7.79312L335.253 10.4881C339.64 12.6332 343.722 15.2981 347.381 18.5199L349.364 16.2683ZM322.153 2.69476C317.238 1.53229 312.162 0.849015 307.045 0.603835L306.902 3.6004C311.848 3.83743 316.74 4.49735 321.463 5.61423L322.153 2.69476ZM291.828 1.12513C286.745 1.70764 281.728 2.68835 276.896 4.0298L277.698 6.92049C282.379 5.62105 287.241 4.67032 292.17 4.10563L291.828 1.12513ZM262.598 9.31903C257.824 11.58 253.409 14.2385 249.515 17.2492L251.351 19.6224C255.054 16.7584 259.28 14.2095 263.882 12.0304L262.598 9.31903ZM238.829 28.3299C235.816 32.7219 233.77 37.5452 232.983 42.7122L235.949 43.1638C236.659 38.4977 238.513 34.0941 241.303 30.027L238.829 28.3299ZM234.38 58.1838C235.147 60.5403 236.172 62.9278 237.47 65.3402L240.112 63.9187C238.893 61.6534 237.94 59.4305 237.233 57.2556L234.38 58.1838ZM237.47 65.3402C238.805 67.8216 240.247 70.2319 241.794 72.5722L244.297 70.9182C242.799 68.6528 241.404 66.3201 240.112 63.9187L237.47 65.3402ZM252.265 85.7345C256.056 89.7408 260.22 93.4889 264.742 96.9881L266.578 94.6156C262.172 91.2054 258.123 87.5603 254.444 83.6726L252.265 85.7345ZM278.646 106.335C283.333 109.076 288.299 111.621 293.531 113.978L294.763 111.242C289.621 108.926 284.75 106.429 280.16 103.745L278.646 106.335ZM309.055 120.155C314.165 121.947 319.48 123.593 324.989 125.1L325.78 122.206C320.334 120.717 315.087 119.091 310.047 117.324L309.055 120.155ZM341.192 129.014C346.503 130.139 351.967 131.154 357.579 132.062L358.059 129.101C352.491 128.2 347.074 127.194 341.814 126.079L341.192 129.014ZM374.063 134.373C379.457 135.02 384.971 135.579 390.6 136.054L390.852 133.065C385.257 132.593 379.778 132.037 374.42 131.395L374.063 134.373ZM407.221 137.195C412.653 137.487 418.181 137.708 423.801 137.86L423.882 134.861C418.288 134.71 412.786 134.49 407.382 134.2L407.221 137.195ZM440.442 138.11C445.896 138.129 451.429 138.088 457.037 137.991L456.985 134.991C451.397 135.088 445.885 135.129 440.452 135.11L440.442 138.11ZM473.646 137.542C479.118 137.344 484.656 137.095 490.256 136.798L490.097 133.802C484.513 134.099 478.992 134.347 473.537 134.544L473.646 137.542ZM506.813 135.788C509.568 135.599 512.336 135.399 515.119 135.188L514.892 132.197C512.117 132.407 509.355 132.607 506.608 132.795L506.813 135.788ZM515.119 135.188C517.702 134.993 520.309 134.786 522.94 134.569L522.693 131.579C520.069 131.796 517.468 132.002 514.892 132.197L515.119 135.188ZM538.68 133.181C543.849 132.698 549.094 132.182 554.405 131.638L554.099 128.653C548.796 129.196 543.56 129.712 538.4 130.194L538.68 133.181ZM570.108 129.972C575.28 129.407 580.506 128.819 585.778 128.214L585.436 125.234C580.168 125.838 574.948 126.425 569.782 126.99L570.108 129.972ZM601.443 126.383C606.628 125.766 611.85 125.137 617.102 124.497L616.74 121.519C611.49 122.159 606.271 122.788 601.088 123.404L601.443 126.383ZM632.758 122.576C637.955 121.934 643.175 121.286 648.411 120.635L648.041 117.658C642.805 118.309 637.586 118.957 632.39 119.599L632.758 122.576ZM664.062 118.688C669.271 118.041 674.49 117.393 679.713 116.749L679.346 113.772C674.121 114.416 668.901 115.063 663.692 115.711L664.062 118.688ZM695.366 114.834C700.589 114.2 705.809 113.572 711.022 112.954L710.669 109.975C705.453 110.593 700.229 111.221 695.005 111.855L695.366 114.834ZM726.683 111.125C731.922 110.524 737.146 109.935 742.351 109.362L742.023 106.38C736.813 106.954 731.584 107.543 726.341 108.145L726.683 111.125ZM758.026 107.682C763.283 107.134 768.513 106.606 773.709 106.101L773.419 103.115C768.215 103.621 762.978 104.149 757.715 104.698L758.026 107.682ZM789.402 104.642C794.681 104.173 799.917 103.733 805.104 103.325L804.869 100.335C799.671 100.744 794.425 101.184 789.137 101.653L789.402 104.642ZM820.813 102.181C826.116 101.826 831.356 101.511 836.526 101.239L836.368 98.2433C831.183 98.5162 825.929 98.8323 820.613 99.1872L820.813 102.181ZM852.234 100.541C857.578 100.35 862.834 100.213 867.99 100.134L867.944 97.1347C862.766 97.2136 857.49 97.3514 852.127 97.543L852.234 100.541ZM883.746 100.085C889.117 100.139 894.358 100.267 899.458 100.478L899.581 97.4806C894.448 97.2685 889.175 97.139 883.776 97.0855L883.746 100.085ZM915.108 101.426C920.529 101.868 925.75 102.424 930.753 103.102L931.156 100.129C926.094 99.4428 920.82 98.8816 915.352 98.4354L915.108 101.426ZM946.154 105.735C948.758 106.285 951.283 106.879 953.724 107.518L954.484 104.616C951.993 103.964 949.422 103.359 946.774 102.8L946.154 105.735ZM953.724 107.518C956.564 108.262 959.41 108.962 962.259 109.621L962.934 106.698C960.113 106.046 957.295 105.353 954.484 104.616L953.724 107.518ZM979.476 113.114C985.289 114.137 991.085 115.007 996.836 115.744L997.217 112.768C991.51 112.037 985.76 111.174 979.997 110.159L979.476 113.114ZM1014.29 117.607C1020.22 118.119 1026.07 118.504 1031.8 118.788L1031.95 115.791C1026.25 115.51 1020.44 115.126 1014.55 114.618L1014.29 117.607ZM1049.32 119.366C1055.37 119.47 1061.22 119.477 1066.84 119.419L1066.81 116.419C1061.22 116.477 1055.39 116.47 1049.37 116.366L1049.32 119.366ZM1084.37 119.034C1090.7 118.828 1096.56 118.574 1101.87 118.333L1101.73 115.336C1096.43 115.577 1090.58 115.831 1084.28 116.036L1084.37 119.034ZM1119.34 117.605C1122.86 117.507 1125.73 117.494 1127.92 117.611L1128.08 114.615C1125.77 114.491 1122.79 114.508 1119.25 114.606L1119.34 117.605Z" fill="#112120"/>
</svg>
